<svg xmlns="http://www.w3.org/2000/svg" width="15.5" height="15.5" viewBox="0 0 15.5 15.5">
  <path id="Icon_ionic-ios-arrow-dropdown-circle" data-name="Icon ionic-ios-arrow-dropdown-circle" d="M3.375,10.875a7.5,7.5,0,1,0,7.5-7.5A7.5,7.5,0,0,0,3.375,10.875ZM13.8,9.31a.7.7,0,0,1,.984,0,.687.687,0,0,1,.2.49.7.7,0,0,1-.206.494l-3.4,3.389a.7.7,0,0,1-.959-.022L6.97,10.222a.7.7,0,0,1,.984-.984l2.924,2.953Z" transform="translate(-3.125 18.625) rotate(-90)" fill="none" stroke="#2a20f2" stroke-width="0.5"/>
</svg>
